<svg width="21" height="20" viewBox="0 0 21 20" fill="none" xmlns="http://www.w3.org/2000/svg">
<path d="M16.033 2.65698V3.76398C16.033 4.98537 15.0404 5.97798 13.819 5.97798H7.17701C5.95562 5.97798 4.96302 4.98537 4.96302 3.76398V2.65698C3.74163 2.65698 2.74902 3.64958 2.74902 4.87098V17.7861C2.74902 19.0075 3.74163 20.0001 4.96302 20.0001H16.033C17.2544 20.0001 18.247 19.0075 18.247 17.7861V4.87098C18.247 3.64958 17.2544 2.65698 16.033 2.65698ZM14.3107 12.0665L10.4979 15.8793C9.97114 16.4061 9.11782 16.4061 8.59109 15.8793L6.68429 13.9725C6.15754 13.4458 6.15754 12.5924 6.68429 12.0657C7.21105 11.539 8.06436 11.539 8.59109 12.0657L9.54404 13.0187L12.4037 10.159C12.9305 9.63226 13.7838 9.63226 14.3105 10.159C14.8372 10.6858 14.8373 11.5391 14.3105 12.0658L14.3107 12.0665Z" fill="#E4E4E4"/>
<path d="M13.8188 1.5498H12.5439C12.2533 0.649439 11.4461 0 10.4978 0C9.55036 0 8.74224 0.649439 8.45165 1.5498H7.17677C6.76901 1.5498 6.43877 1.88004 6.43877 2.2878V3.76379C6.43877 4.17155 6.76901 4.50179 7.17677 4.50179H13.8188C14.2265 4.50179 14.5567 4.17155 14.5567 3.76379V2.2878C14.5567 1.88004 14.2265 1.5498 13.8188 1.5498Z" fill="#E4E4E4"/>
</svg>
