<svg width="24" height="24" viewBox="0 0 24 24" fill="none" xmlns="http://www.w3.org/2000/svg">
<path d="M10.9248 2.22411L2.27292 10.198C2.09785 10.3593 1.9983 10.5859 2.00002 10.8228V20.9285C2.00002 21.3988 2.38276 21.7815 2.85304 21.7815H7.47532C7.94559 21.7815 8.32834 21.3988 8.32834 20.9285V14.003C8.32834 13.5327 8.70937 13.1517 9.17964 13.1517H13.8204C14.2907 13.1517 14.6717 13.5327 14.6717 14.003V20.9232C14.6717 21.3952 15.0544 21.7763 15.5247 21.7763H20.147C20.6173 21.7763 21 21.3952 21 20.9232V10.8175C21 10.5823 20.9005 10.3575 20.7271 10.1979L12.0753 2.22398C11.7509 1.92534 11.2497 1.92534 10.9253 2.22398L10.9248 2.22411Z" fill="currentColor"/>
</svg>
