<svg width="24" height="24" viewBox="0 0 24 24" xmlns="http://www.w3.org/2000/svg">
<path d="M14.7909 9.00038L16.2505 7.7601C16.8402 8.16041 17.5508 8.39008 18.3101 8.39008C20.3397 8.39008 22 6.72982 22 4.68988C22 2.64995 20.3397 1 18.3101 1C16.2805 1 14.6099 2.66027 14.6099 4.68988C14.6099 5.24018 14.7299 5.76985 14.9502 6.23951L14.1103 6.95949C13.6106 6.35951 12.8503 5.97984 12 5.97984C11.1497 5.97984 10.3904 6.35951 9.88975 6.95949L9.04977 6.23951C9.27008 5.76985 9.39008 5.23922 9.39008 4.68988C9.39008 2.66027 7.72982 1 5.68988 1C3.64995 1 2 2.66027 2 4.68988C2 6.7195 3.66027 8.39008 5.68988 8.39008C6.45018 8.39008 7.15983 8.1604 7.7495 7.7601L9.20913 9.00038V10.9503C9.20913 11.57 9.29913 12.1803 9.47912 12.7699L7.7495 14.2399C7.15983 13.8396 6.44922 13.6099 5.68988 13.6099C3.66027 13.6099 2 15.2702 2 17.2998C2 19.3294 3.66027 21 5.68988 21C7.7195 21 9.39008 19.3397 9.39008 17.2998C9.39008 16.7495 9.27009 16.2302 9.04977 15.7595L10.3594 14.6392C10.6294 15.0396 10.9594 15.4192 11.3194 15.7492C11.5191 15.9292 11.759 16.0089 11.999 16.0089C12.239 16.0089 12.479 15.9292 12.6787 15.7492C13.0387 15.4192 13.3687 15.0396 13.6387 14.6392L14.9483 15.7595C14.728 16.2292 14.608 16.7495 14.608 17.2998C14.608 19.3397 16.2683 21 18.3082 21C20.3481 21 21.9981 19.3397 21.9981 17.2998C21.9981 15.2599 20.3378 13.6099 18.3082 13.6099C17.5479 13.6099 16.8382 13.8396 16.2486 14.2399L14.519 12.7699C14.699 12.1803 14.789 11.57 14.789 10.9503V9.00038H14.7909Z" fill="currentColor"/>
</svg>
