<svg width="21" height="20" viewBox="0 0 21 20" fill="none" xmlns="http://www.w3.org/2000/svg">
<path d="M19.2459 13.6949H18.7383C18.4337 13.6949 18.163 13.4576 18.163 13.1186V7.72881C18.1968 3.45763 14.745 0 10.4811 0C6.21711 0 2.76533 3.45763 2.76533 7.72881V13.1186C2.76533 13.4237 2.52844 13.6949 2.19003 13.6949H1.71626C1.03944 13.6949 0.497986 14.2373 0.497986 14.9153C0.497986 15.5932 1.03944 16.1017 1.71626 16.1017H19.2797C19.9565 16.1017 20.498 15.5593 20.498 14.9153C20.4641 14.2034 19.9227 13.6949 19.2459 13.6949ZM10.4811 2.27119C7.46922 2.27119 5.03267 4.71186 5.03267 7.72881C5.03267 8.0339 4.79579 8.30508 4.45738 8.30508C4.15281 8.30508 3.88208 8.0678 3.88208 7.72881C3.88208 4.10169 6.82624 1.11864 10.4811 1.11864C10.7856 1.11864 11.0564 1.35593 11.0564 1.69492C11.0564 2 10.7856 2.27119 10.4811 2.27119ZM7.19849 17.2203C7.46922 18.8136 8.8567 20 10.4811 20C12.1054 20 13.4929 18.7797 13.7636 17.2203H7.19849Z" fill="#E4E4E4"/>
</svg>
