<svg width="21" height="20" viewBox="0 0 21 20" fill="none" xmlns="http://www.w3.org/2000/svg">
<path d="M4.49928 0C3.12494 0 2 1.1259 2 2.50024V17.4998C2 18.8741 3.12496 20 4.49928 20H15.4996C16.8739 20 17.9988 18.8741 17.9988 17.4998V4.49986C17.9988 3.72737 17.6923 2.98584 17.1457 2.43931L15.5595 0.854037C15.013 0.307502 14.2724 0 13.499 0H4.49928ZM5.99923 5.50014C6.54577 5.50014 6.99952 5.95387 6.99952 6.50043C6.99952 7.04603 6.54579 7.49978 5.99923 7.49978C5.45363 7.49978 4.99988 7.04605 4.99988 6.50043C4.99988 5.9539 5.45361 5.50014 5.99923 5.50014ZM8.49947 5.99981H14.4993C14.6315 5.99981 14.759 6.05324 14.8527 6.14699C14.9465 6.24074 14.999 6.3673 14.999 6.50043C14.999 6.63261 14.9465 6.7601 14.8527 6.85386C14.759 6.94763 14.6315 7.00011 14.4993 7.00011H8.49947C8.22293 7.00011 7.99981 6.77606 7.99981 6.50045C7.99981 6.2239 8.22293 5.99981 8.49947 5.99981ZM5.99923 8.99971C6.54577 8.99971 6.99952 9.45344 6.99952 10C6.99952 10.5466 6.54579 11.0003 5.99923 11.0003C5.45363 11.0003 4.99988 10.5466 4.99988 10C4.99988 9.45344 5.45361 8.99971 5.99923 8.99971ZM8.49947 9.50031H14.4993C14.6315 9.50031 14.759 9.55281 14.8527 9.64656C14.9465 9.74031 14.999 9.8678 14.999 10C14.999 10.1322 14.9465 10.2597 14.8527 10.3534C14.759 10.4472 14.6315 10.4997 14.4993 10.4997H8.49947C8.22293 10.4997 7.99981 10.2766 7.99981 10C7.99981 9.72347 8.22293 9.50031 8.49947 9.50031ZM5.99923 12.5002C6.54577 12.5002 6.99952 12.9539 6.99952 13.4996C6.99952 14.0461 6.54579 14.4999 5.99923 14.4999C5.45363 14.4999 4.99988 14.0461 4.99988 13.4996C4.99988 12.954 5.45361 12.5002 5.99923 12.5002ZM8.49947 12.9999H14.4993C14.6315 12.9999 14.759 13.0524 14.8527 13.1461C14.9465 13.2399 14.999 13.3674 14.999 13.4996C14.999 13.6327 14.9465 13.7592 14.8527 13.853C14.759 13.9467 14.6315 14.0002 14.4993 14.0002H8.49947C8.22293 14.0002 7.99981 13.7761 7.99981 13.4996C7.99981 13.224 8.22293 12.9999 8.49947 12.9999Z" fill="#E4E4E4"/>
</svg>
