<svg width="20" height="20" viewBox="0 0 20 20" fill="none" xmlns="http://www.w3.org/2000/svg">
<path d="M10 0C4.48849 0 0 4.48828 0 10C0 15.5117 4.48828 20 10 20C15.5117 20 20 15.5117 20 10C20 4.48828 15.5117 0 10 0ZM13.5296 10.5881H10.5881V13.5296C10.5881 13.8531 10.3234 14.1178 9.99994 14.1178C9.67651 14.1178 9.41181 13.8531 9.41181 13.5296V10.5881H6.47024C6.14681 10.5881 5.88211 10.3234 5.88211 9.99994C5.88211 9.67651 6.14681 9.41181 6.47024 9.41181H9.41181V6.47024C9.41181 6.14681 9.67651 5.88211 9.99994 5.88211C10.3234 5.88211 10.5881 6.14681 10.5881 6.47024V9.41181H13.5296C13.8531 9.41181 14.1178 9.67651 14.1178 9.99994C14.1178 10.3234 13.8531 10.5881 13.5296 10.5881Z" fill="white"/>
</svg>
